<svg width="64" height="65" viewBox="0 0 64 65" fill="none" xmlns="http://www.w3.org/2000/svg">
<path d="M32 64.9999C49.6731 64.9999 64 50.4955 64 32.6035C64 14.7114 49.6731 0.207031 32 0.207031C14.3269 0.207031 0 14.7114 0 32.6035C0 50.4955 14.3269 64.9999 32 64.9999Z" fill="#ECEDF1"/>
<path d="M53.4867 33.0354C53.4867 44.8236 44.0498 54.365 32.4267 54.365C20.8037 54.365 11.3667 44.8236 11.3667 33.0354C11.3667 21.2473 20.8037 11.7059 32.4267 11.7059C44.0498 11.7059 53.4867 21.2473 53.4867 33.0354Z" fill="#F47900" stroke="black" stroke-width="1.4"/>
<path d="M37.4139 26.74L37.1411 27.129L37.4139 26.74C36.4586 26.07 35.1032 25.5322 33.8503 25.285V22.8174V22.3174H33.3503H32.4954H31.9954V22.8174V25.1422C30.6882 25.2151 29.6143 25.6158 28.8383 26.2945C27.9699 27.054 27.538 28.1076 27.538 29.2533C27.538 29.9762 27.7042 30.5984 28.0186 31.1316C28.3306 31.6606 28.7675 32.0665 29.2581 32.3915C30.1373 32.974 31.2745 33.3463 32.3426 33.6959L32.3828 33.7091L32.6237 33.7881L32.625 33.7885L32.6844 33.8078L32.6844 33.8078C33.8753 34.1957 34.8407 34.5147 35.5292 34.9884C35.8649 35.2193 36.1102 35.4723 36.2745 35.7665C36.4375 36.0583 36.5412 36.4267 36.5412 36.92C36.5412 37.7283 36.1954 38.3294 35.6184 38.7493C35.0208 39.1842 34.1432 39.4427 33.0999 39.4427C31.5322 39.4427 29.9607 38.7619 28.8035 37.6356L28.6795 37.5149L28.3246 37.1696L27.9758 37.5211L27.312 38.1901L26.9506 38.5545L27.3242 38.9063L27.4501 39.0248C28.7495 40.2483 30.3376 40.9929 31.9956 41.2272V43.5511V44.0511H32.4956H33.3506H33.8506V43.5511V41.2727C35.1523 41.1592 36.2267 40.7379 37.0135 40.0559C37.9389 39.2536 38.407 38.1406 38.407 36.9201C38.407 35.3155 37.7312 34.2603 36.6967 33.5255C35.7783 32.8732 34.5737 32.4745 33.4283 32.0953L33.3836 32.0805L33.2233 32.0274L33.2214 32.0268L33.0461 31.9695L33.0461 31.9695C31.9889 31.6241 31.0834 31.3249 30.418 30.9014C30.0804 30.6866 29.834 30.4572 29.6709 30.199C29.5111 29.9461 29.4151 29.6403 29.4151 29.2424C29.4151 28.5133 29.7179 27.9769 30.2175 27.6036C30.7368 27.2157 31.5065 26.9804 32.4361 26.9804C32.9748 26.9804 33.6757 27.1083 34.3844 27.3415C35.092 27.5743 35.7583 27.896 36.2387 28.2498L36.3655 28.3431L36.7276 28.6098L37.031 28.2779L37.6533 27.5971L38.0371 27.1772L37.5713 26.8505L37.4139 26.74Z" fill="white" stroke="white"/>
</svg>
