<svg width="65" height="64" viewBox="0 0 65 64" fill="none" xmlns="http://www.w3.org/2000/svg">
<path d="M32.6602 64C50.3333 64 64.6602 49.6731 64.6602 32C64.6602 14.3269 50.3333 0 32.6602 0C14.987 0 0.660156 14.3269 0.660156 32C0.660156 49.6731 14.987 64 32.6602 64Z" fill="#ECEDF1"/>
<path d="M25.5609 11.52H41.2986C42.0285 11.5665 42.7583 11.8922 43.2601 12.4506C43.7163 12.9624 43.99 13.6138 43.99 14.2652V50.5577C43.9444 51.3021 43.625 52.0001 43.1233 52.5119C42.6215 53.0237 41.9372 53.3029 41.253 53.3494H25.5153C24.7398 53.3029 24.01 52.9306 23.5082 52.3723C23.052 51.8605 22.8239 51.2091 22.7783 50.5577V14.3117C22.8239 13.6138 23.0976 12.8694 23.5994 12.4041C24.1924 11.8457 24.8767 11.5665 25.5609 11.52ZM24.603 13.3812C24.3293 13.6603 24.1924 14.0791 24.1924 14.4979C24.1924 15.475 24.1924 16.4521 24.1924 17.4292C30.3963 17.4292 36.5545 17.4292 42.7583 17.4292C42.7583 16.4055 42.7583 15.4284 42.7583 14.4048C42.7127 13.6138 42.0285 12.9159 41.253 12.9159C36.0983 12.9159 30.9437 12.9159 25.7434 12.9159C25.3328 12.8694 24.8767 13.0555 24.603 13.3812ZM24.1924 18.732C24.1924 27.5725 24.1924 36.4594 24.1924 45.2999C30.3963 45.2999 36.5545 45.2999 42.7583 45.2999C42.7583 36.4594 42.7583 27.5725 42.7583 18.732C36.5089 18.732 30.3507 18.732 24.1924 18.732ZM24.1924 46.6958C24.1924 47.9986 24.1924 49.3014 24.1924 50.6042C24.238 51.3952 24.9223 52.0931 25.6978 52.0931C30.8981 52.0931 36.0527 52.0931 41.253 52.0931C42.0285 52.0931 42.7127 51.3952 42.7583 50.6042C42.7583 49.3014 42.7583 47.9986 42.7583 46.6958C36.5089 46.6958 30.3507 46.6958 24.1924 46.6958Z" fill="black"/>
<path d="M24.1924 14.4977C24.1924 14.079 24.3292 13.6602 24.6029 13.3811C24.8766 13.0554 25.3328 12.8692 25.7433 12.9158H41.2529C42.0284 12.9158 42.7127 13.6137 42.7583 14.4047V17.4291H24.1924V14.4977Z" fill="white"/>
<path d="M24.1924 45.2998V18.7319H42.7583V45.2998H24.1924Z" fill="white"/>
<path d="M24.1924 50.6041V46.6957H42.7583V50.6041C42.7127 51.3951 42.0284 52.093 41.2529 52.093H25.6977C24.9222 52.093 24.238 51.3951 24.1924 50.6041Z" fill="white"/>
<path d="M24.1924 45.2999V18.7319H42.7583V45.2999H24.1924Z" fill="#F47900"/>
<path d="M31.0347 14.6837C31.126 14.6372 31.1716 14.6372 31.2628 14.6372C32.7225 14.6372 34.1823 14.6372 35.642 14.6372C35.8701 14.6372 36.0982 14.8233 36.0982 15.1025C36.0982 15.3351 35.9157 15.5678 35.642 15.5678C34.1823 15.5678 32.7225 15.5678 31.2172 15.5678C30.9891 15.5678 30.8067 15.3817 30.761 15.149C30.7154 14.9629 30.8523 14.7768 31.0347 14.6837Z" fill="black"/>
<path d="M32.9974 47.5337C33.4535 47.4406 33.9097 47.5337 34.2746 47.7664C34.6852 47.999 34.9589 48.3712 35.0957 48.8365C35.2326 49.3018 35.187 49.8136 35.0045 50.2324C34.7764 50.6977 34.4115 51.0234 33.9553 51.1629C33.4992 51.3491 32.9518 51.3025 32.4956 51.0234C32.0851 50.7907 31.7201 50.372 31.5833 49.9067C31.4464 49.3949 31.492 48.8365 31.7657 48.3712C32.0394 47.9059 32.4956 47.6268 32.9974 47.5337ZM33.0886 48.4643C32.7693 48.5573 32.4956 48.8365 32.4044 49.2087C32.3131 49.581 32.45 49.9532 32.7693 50.1858C33.043 50.4185 33.4079 50.465 33.7272 50.3254C34.0466 50.1858 34.2746 49.9067 34.3203 49.5344C34.3659 49.2087 34.229 48.883 34.0009 48.6504C33.7729 48.3712 33.3623 48.3247 33.0886 48.4643Z" fill="black"/>
<path d="M27.8801 31.3602L32.3601 35.8402L38.7601 28.1602" stroke="white" stroke-width="2"/>
</svg>
