<svg width="65" height="64" viewBox="0 0 65 64" fill="none" xmlns="http://www.w3.org/2000/svg">
<path d="M32.6602 64C50.3333 64 64.6602 49.6731 64.6602 32C64.6602 14.3269 50.3333 0 32.6602 0C14.987 0 0.660156 14.3269 0.660156 32C0.660156 49.6731 14.987 64 32.6602 64Z" fill="#ECEDF1"/>
<path fill-rule="evenodd" clip-rule="evenodd" d="M13.8005 18.3062H43.8805V44.5461H13.8005V18.3062Z" fill="black"/>
<path d="M15.0806 19.5859V43.2659H42.6006V19.5859H15.0806Z" fill="white"/>
<path d="M42.6006 24.7061H52.2006L56.6806 34.3061V44.5461H42.6006V24.7061Z" fill="black"/>
<path fill-rule="evenodd" clip-rule="evenodd" d="M43.8804 25.9863V43.2663H55.4004V34.5905L51.385 25.9863H43.8804Z" fill="#F47900"/>
<path fill-rule="evenodd" clip-rule="evenodd" d="M49.6404 34.3063H56.6804V35.5863H48.3604V25.9863H49.6404V34.3063Z" fill="black"/>
<path fill-rule="evenodd" clip-rule="evenodd" d="M49.6404 25.9863V34.3063H55.2685L51.385 25.9863H49.6404Z" fill="white"/>
<path d="M24.0405 48.3863C22.8524 48.3863 21.7129 47.9143 20.8727 47.0741C20.0325 46.2339 19.5605 45.0944 19.5605 43.9063C19.5605 42.7181 20.0325 41.5786 20.8727 40.7384C21.7129 39.8983 22.8524 39.4263 24.0405 39.4263C25.2287 39.4263 26.3682 39.8983 27.2084 40.7384C28.0485 41.5786 28.5205 42.7181 28.5205 43.9063C28.5205 45.0944 28.0485 46.2339 27.2084 47.0741C26.3682 47.9143 25.2287 48.3863 24.0405 48.3863ZM45.1605 48.3863C43.9724 48.3863 42.8329 47.9143 41.9927 47.0741C41.1525 46.2339 40.6805 45.0944 40.6805 43.9063C40.6805 42.7181 41.1525 41.5786 41.9927 40.7384C42.8329 39.8983 43.9724 39.4263 45.1605 39.4263C46.3487 39.4263 47.4882 39.8983 48.3284 40.7384C49.1685 41.5786 49.6405 42.7181 49.6405 43.9063C49.6405 45.0944 49.1685 46.2339 48.3284 47.0741C47.4882 47.9143 46.3487 48.3863 45.1605 48.3863Z" fill="black"/>
<path fill-rule="evenodd" clip-rule="evenodd" d="M24.0406 47.1061C23.1919 47.1061 22.378 46.7689 21.7778 46.1688C21.1777 45.5687 20.8406 44.7548 20.8406 43.9061C20.8406 43.0574 21.1777 42.2434 21.7778 41.6433C22.378 41.0432 23.1919 40.7061 24.0406 40.7061C24.8893 40.7061 25.7032 41.0432 26.3033 41.6433C26.9034 42.2434 27.2406 43.0574 27.2406 43.9061C27.2406 44.7548 26.9034 45.5687 26.3033 46.1688C25.7032 46.7689 24.8893 47.1061 24.0406 47.1061ZM45.1606 47.1061C44.3119 47.1061 43.4979 46.7689 42.8978 46.1688C42.2977 45.5687 41.9606 44.7548 41.9606 43.9061C41.9606 43.0574 42.2977 42.2434 42.8978 41.6433C43.4979 41.0432 44.3119 40.7061 45.1606 40.7061C46.0093 40.7061 46.8232 41.0432 47.4233 41.6433C48.0234 42.2434 48.3606 43.0574 48.3606 43.9061C48.3606 44.7548 48.0234 45.5687 47.4233 46.1688C46.8232 46.7689 46.0093 47.1061 45.1606 47.1061Z" fill="white"/>
<path d="M5.48047 37.5062H18.2805V38.7862H5.48047V37.5062ZM8.04047 33.6662H18.2805V34.9462H8.04047V33.6662ZM10.6005 29.8262H18.2805V31.1062H10.6005V29.8262Z" fill="black"/>
</svg>
